# xmcd CD database file
#
# Track frame offsets:
#	150
#	13145
#	28000
#	40579
#	53208
#	66481
#	79084
#	92875
#	105799
#	117990
#	127908
#	137221
#	148747
#	161950
#	175789
#	190609
#	202035
#	216277
#
# Disc length: 3086 seconds
#
# Revision: 0
# Processed by: cddbd v1.4PL0 Copyright (c) Steve Scherf et al.
# Submitted via: Feurio! 1.66 - http://www.feurio.com
#
DISCID=030c0c12
DTITLE=Various Artist - Blues Is Black -CD 3
DYEAR=2002
DGENRE=Blues
TTITLE0=B.B. Fuller and S. Terry - Blowing The Blues
TTITLE1=B.B. Broonzy - Good Jelly
TTITLE2=P. Chatman - The Jive Blues
TTITLE3=K. Arnold - Sally Dog
TTITLE4=T. Red - You Can't Get That Stuff No More
TTITLE5=J.L. Williamson - Black Gal Blues
TTITLE6=B.W. Mctell - Georgia Rag
TTITLE7=M. Minnie - Joe Louis Strut
TTITLE8=M. Waters - I Can't Be Satisfied
TTITLE9=H. Ledbetter - Midnight Special
TTITLE10=L. Hopkins - Can't Do Like You Used To
TTITLE11=B. Mcghee - Million Lonesome Woman
TTITLE12=M. Waters - Burr Clover Farm Blues
TTITLE13=L. Johnson - Life Saver Blues
TTITLE14=L. Johnson - Four Hands Are Better Than Two
TTITLE15=M. Waters - Little Anna Mea
TTITLE16=B.W. Johnson - Nobody's Fault But Mine
TTITLE17=M. Waters - I Be Bound To Write To You
EXTD=Blues Is Black -CD 1\r\n3 CD - VÖ-Datum: 13.2.2002\r\nTrilogie\r\n
EXTT0=
EXTT1=
EXTT2=
EXTT3=
EXTT4=
EXTT5=
EXTT6=
EXTT7=
EXTT8=
EXTT9=
EXTT10=
EXTT11=
EXTT12=
EXTT13=
EXTT14=
EXTT15=
EXTT16=
EXTT17=
PLAYORDER=
